<svg xmlns:xlink="http://www.w3.org/1999/xlink" xmlns="http://www.w3.org/2000/svg" width="75" height="32" viewBox="0 0 75 32" fill="none">
<path d="M0.00234985 13.6634H5.76291L7.98468 18.3245L10.1835 13.6634H15.9441V27.601H12.3595V17.0189L7.97323 25.8488L3.58695 17.0189V27.601H0.00234985V13.6634Z" fill="#1A1D1E"/>
<path d="M24.4187 22.6192H28.5874C28.679 23.2949 28.8623 23.6843 29.1371 24.0393C29.5838 24.6119 30.2366 24.8982 31.0726 24.8982C31.7025 24.8982 32.1835 24.7493 32.5156 24.463C32.8592 24.1653 33.0195 23.8331 33.0195 23.4438C33.0195 23.0773 32.8592 22.7452 32.5385 22.4588C32.2178 22.1725 31.4734 21.8977 30.2938 21.6343C28.3698 21.1991 27.007 20.6265 26.1824 19.9164C25.3578 19.2064 24.9456 18.2902 24.9456 17.1793C24.9456 16.4463 25.1517 15.7592 25.5754 15.1178C25.9992 14.4651 26.6291 13.9612 27.4765 13.5947C28.324 13.2282 29.4807 13.0335 30.9581 13.0335C32.7676 13.0335 34.1533 13.3656 35.1039 14.0413C36.0544 14.717 36.6156 15.9081 36.7988 17.374H32.6759C32.5614 16.7326 32.3324 16.3891 31.9888 16.1028C31.6452 15.8164 31.1528 15.6676 30.5343 15.6676C30.019 15.6676 29.641 15.7706 29.3891 15.9882C29.1371 16.2058 28.9997 16.4692 28.9997 16.7784C28.9997 17.0075 29.1028 17.2022 29.3204 17.3854C29.5265 17.5687 30.019 17.7404 30.7863 17.9122C32.6988 18.3245 34.0731 18.7368 34.8977 19.1605C35.7223 19.5843 36.3293 20.1111 36.7072 20.7295C37.0851 21.3594 37.2684 22.058 37.2684 22.8253C37.2684 23.7301 37.0164 24.5661 36.5125 25.3449C36.0086 26.1122 35.31 26.6962 34.4053 27.0856C33.5005 27.475 32.3667 27.6811 30.9924 27.6811C28.5874 27.6811 26.9154 27.223 25.9877 26.2839C25.0601 25.3563 24.5333 24.0507 24.4187 22.6192Z" fill="#1A1D1E"/>
<path d="M22.3573 10.6743L20.376 12.5525L18.4635 10.6171C19.0934 9.96427 19.7232 9.31148 20.3646 8.65869C21.0059 9.30003 21.716 10.0215 22.3573 10.6743Z" fill="#14A0A6"/>
<path d="M45.2164 15.6104C41.712 15.6104 39.9025 17.3282 39.7422 20.8212V31.9873H41.2195C42.193 31.9873 42.674 31.5063 42.674 30.5328V25.8374C43.4184 27.0513 44.5293 27.6468 45.9838 27.6468C49.0988 27.5323 50.6334 25.4823 50.6334 21.5083C50.6334 17.5344 48.8354 15.6104 45.2164 15.6104ZM45.1706 25.0013C43.5787 25.0013 42.7656 23.879 42.674 21.6229C42.6511 19.2637 43.4413 18.0955 45.1248 18.0955C46.8083 18.0955 47.6444 19.2637 47.6444 21.6229C47.5756 23.879 46.7511 25.0013 45.1706 25.0013Z" fill="#14A0A6"/>
<path d="M57.0011 15.5645C54.3098 15.5645 52.7866 16.6181 52.4316 18.7826H55.3634C55.5123 18.2329 56.0964 17.9695 57.1271 17.9695C58.341 17.9695 58.9595 18.3016 59.0282 18.9658C59.0282 19.6072 58.3868 19.9851 57.1271 20.134C54.1724 20.4203 52.1453 21.1761 52.0766 23.9705C52.0766 26.5473 54.0235 27.8529 56.8179 27.6353C59.9673 27.4177 61.9142 25.9747 61.9142 22.7566V18.7826C61.8569 16.6181 60.2307 15.5645 57.0011 15.5645ZM59.074 22.6191C59.074 24.2683 58.0776 25.2417 56.4514 25.2417C55.5237 25.2417 55.0427 24.7951 54.974 23.8789C54.974 23.02 55.5695 22.4703 56.7377 22.2527C57.5966 22.0809 58.3983 21.8289 59.074 21.5426V22.6191Z" fill="#14A0A6"/>
<path d="M72.1753 15.7248C71.9004 15.7706 71.637 15.8737 71.408 16.0455C70.8583 16.4578 70.6407 17.1678 70.4574 17.8321C69.9421 19.6988 69.4153 21.5655 68.8999 23.4323C68.7968 23.146 68.2471 21.5999 67.1935 19.4354C65.3611 15.1637 58.1804 3.48219 46.3501 0.607635C38.1731 -1.38508 29.0799 1.58109 20.3531 8.65868L23.1704 7.23858C33.9013 1.93611 38.3907 1.6269 45.6744 3.40202C51.4235 4.79922 55.8671 8.60142 58.5813 11.5447C61.5245 14.7399 63.5974 18.1298 64.5709 20.2371C65.4413 22.31 66.2658 24.6577 66.9988 27.3032C67.1019 27.6697 67.2049 28.0476 67.1133 28.4255C66.8728 29.3875 65.6016 29.5822 64.6052 29.5708C64.6052 30.3152 64.6167 31.0596 64.6281 31.7926C65.8536 32.0216 67.2393 32.2163 68.2586 31.4833C69.0144 30.9451 69.3694 30.0174 69.6787 29.147C71.2476 24.7722 72.725 20.363 74.1107 15.9195C73.4809 15.7592 72.7937 15.6103 72.1753 15.7248Z" fill="#14A0A6"/>
<path d="M20.3646 15.3812L18.4635 13.4572V14.0527L20.3646 15.9767L22.3573 14.1215V13.5259L20.3646 15.3812Z" fill="#14A0A6"/>
<path d="M18.4635 14.03L20.3646 15.954L22.3573 14.0872V27.6011H18.4635V14.03Z" fill="#1A1D1E"/>
<path d="M1.74649 10.5049C1.74649 10.7603 1.66175 10.9756 1.4911 11.1554C1.3239 11.3352 1.11776 11.4268 0.879545 11.4268C0.641335 11.4268 0.437483 11.3352 0.267987 11.1554C0.0984912 10.9756 0.0125977 10.7591 0.0125977 10.5014C0.009162 10.4201 0.00572621 10.2884 0 10.1017H0.343572C0.343572 10.1579 0.343572 10.2357 0.347008 10.3308C0.350444 10.4258 0.35388 10.4808 0.35388 10.5037C0.35388 10.6767 0.412287 10.821 0.533683 10.9286C0.6379 11.0237 0.752424 11.0695 0.877255 11.0695C1.01125 11.0695 1.12577 11.0237 1.2277 10.9286C1.34566 10.821 1.40407 10.6767 1.40407 10.4968L1.40063 10.4213L0.706615 10.4178C0.696307 10.3365 0.69058 10.2541 0.69058 10.1762C0.69058 9.74099 0.880691 9.47644 1.23343 9.47644C1.42697 9.47644 1.577 9.57722 1.68465 9.77764L1.39032 9.92194C1.34795 9.8601 1.30214 9.83032 1.24946 9.83032C1.12463 9.83032 1.06278 9.92194 1.05935 10.1017H1.73619L1.74649 10.5037V10.5049ZM0.872674 11.9994H0.555442V11.6696H0.872674V11.9994ZM1.3468 11.9994H1.02957V11.6696H1.3468V11.9994Z" fill="#14A0A6"/>
<path d="M2.92734 10.7133H2.52536C2.43374 10.7133 2.35472 10.6801 2.29287 10.6183C2.22072 10.5496 2.18179 10.4511 2.18179 10.3274L2.17148 8.59692H2.51849L2.53108 10.19C2.53108 10.3079 2.58949 10.3961 2.68111 10.3961H2.92619V10.7133H2.92734Z" fill="#14A0A6"/>
<path d="M3.81733 10.2884C3.81733 10.5507 3.66386 10.7133 3.3787 10.7133H2.86563V10.3961H3.25158C3.3787 10.3961 3.47375 10.317 3.47375 10.1704C3.47375 10.0433 3.47375 9.93452 3.47032 9.84634C3.46688 9.71234 3.46688 9.60126 3.46345 9.5188H3.81046C3.81389 10.0353 3.81733 10.2907 3.81733 10.2873V10.2884ZM3.50009 11.2103H3.1863V10.8805H3.50009V11.2103Z" fill="#14A0A6"/>
<path d="M8.19405 10.2233C8.19061 10.5737 8.03715 10.7535 7.72679 10.7604C7.52752 10.7638 7.37978 10.6791 7.2916 10.5016C7.21945 10.6688 7.07858 10.757 6.87244 10.7604C6.70867 10.7638 6.58155 10.7043 6.48993 10.5898C6.4739 10.8085 6.388 10.9952 6.23798 11.1555C6.07077 11.3353 5.86463 11.4269 5.62642 11.4269C5.38821 11.4269 5.18435 11.3353 5.01486 11.1555C4.84536 10.9757 4.75947 10.7592 4.75947 10.5016L4.74687 9.83389H5.09732C5.09732 10.0858 5.09732 10.3115 5.10075 10.5073C5.10075 10.6608 5.15343 10.7947 5.25421 10.9035C5.35614 11.0146 5.47983 11.0708 5.62756 11.0708C5.7753 11.0708 5.89555 11.0146 5.99748 10.9035C6.10169 10.7925 6.15437 10.6585 6.15437 10.5016C6.1475 9.99079 6.14407 9.69646 6.14407 9.61515H6.48764L6.49107 10.1122V10.1191C6.50138 10.2107 6.53345 10.2828 6.58269 10.3355C6.63881 10.3939 6.70638 10.4237 6.79571 10.4237C6.9297 10.4237 6.99498 10.3481 6.99498 10.2015C6.99498 10.1557 6.99498 9.95987 6.99154 9.6163H7.33512C7.33855 9.70791 7.33855 9.8545 7.34199 10.0606C7.34543 10.182 7.3752 10.2737 7.43704 10.3355C7.49316 10.3939 7.56187 10.4237 7.65006 10.4237C7.78405 10.4237 7.84933 10.3515 7.84933 10.2049C7.84933 10.2153 7.84933 9.9885 7.84589 9.52124H8.1929L8.19634 10.2244L8.19405 10.2233Z" fill="#1A1D1E"/>
<path d="M8.99584 11.397H8.41406L8.48965 11.2367H8.63051C8.61104 11.2069 8.60074 11.1749 8.60074 11.1348C8.60074 11.0042 8.69579 10.9023 8.81719 10.9023C8.8859 10.9023 8.94202 10.9321 8.99012 10.9939L8.9111 11.1153C8.88476 11.089 8.85498 11.0729 8.82291 11.0729C8.78397 11.0729 8.76451 11.0993 8.76451 11.1485C8.76451 11.2069 8.80688 11.2367 8.88934 11.2367H8.99699V11.397H8.99584ZM8.99241 10.7133H8.64884L8.6328 8.59692H8.97637L8.99241 10.7133Z" fill="#1A1D1E"/>
<path d="M11.6678 10.5049C11.6678 10.7603 11.583 10.9756 11.4124 11.1554C11.2452 11.3352 11.0391 11.4268 10.8008 11.4268C10.5626 11.4268 10.3588 11.3352 10.1893 11.1554C10.0198 10.9756 9.93389 10.7591 9.93389 10.5014C9.93046 10.4201 9.92702 10.2884 9.9213 10.1017H10.2649C10.2649 10.1579 10.2649 10.2357 10.2683 10.3308C10.2717 10.4258 10.2752 10.4808 10.2752 10.5037C10.2752 10.6767 10.3336 10.821 10.455 10.9286C10.5592 11.0237 10.6737 11.0695 10.7986 11.0695C10.9325 11.0695 11.0471 11.0237 11.149 10.9286C11.267 10.821 11.3254 10.6767 11.3254 10.4968L11.3219 10.4213L10.6279 10.4178C10.6176 10.3365 10.6119 10.2541 10.6119 10.1762C10.6119 9.74099 10.802 9.47644 11.1547 9.47644C11.3483 9.47644 11.4983 9.57722 11.6059 9.77764L11.3116 9.92194C11.2692 9.8601 11.2234 9.83032 11.1708 9.83032C11.0459 9.83032 10.9841 9.92194 10.9806 10.1017H11.6575L11.6678 10.5037V10.5049ZM10.794 11.9994H10.4767V11.6696H10.794V11.9994ZM11.2681 11.9994H10.9509V11.6696H11.2681V11.9994Z" fill="#1A1D1E"/>
<path d="M12.6918 8.11235C12.6815 8.18794 12.6585 8.24978 12.6162 8.29215C12.5669 8.34827 12.5085 8.37347 12.4364 8.37347C12.3906 8.37347 12.3287 8.36087 12.2497 8.33109C12.1707 8.30132 12.1157 8.28528 12.0825 8.28528C12.0206 8.28528 11.9806 8.32078 11.968 8.39637H11.85C11.866 8.24863 11.9542 8.13411 12.0825 8.13411C12.1317 8.13411 12.197 8.15014 12.276 8.17992C12.3573 8.2097 12.41 8.22573 12.4364 8.22573C12.5154 8.22573 12.5578 8.18679 12.5635 8.11121H12.6906L12.6918 8.11235ZM12.4535 10.7132H12.11L12.0939 8.59679H12.4375L12.4535 10.7132Z" fill="#1A1D1E"/>
<path d="M15.3028 10.0985C15.3028 10.481 15.0738 10.7135 14.7039 10.7135C14.5309 10.7135 14.3901 10.6608 14.279 10.56C14.1748 10.4649 14.1118 10.3447 14.0889 10.2004H13.9182C13.8369 10.2004 13.7808 10.2267 13.751 10.2794C13.735 10.3149 13.7247 10.3802 13.7281 10.473L13.7407 11.4247H13.3972L13.3811 10.2897C13.3777 10.0046 13.522 9.8614 13.8094 9.8614H14.1164C14.1977 9.60945 14.3843 9.48462 14.6752 9.48462C14.8688 9.48462 15.0222 9.5499 15.1402 9.68046C15.2479 9.79842 15.3005 9.93928 15.3005 10.0996L15.3028 10.0985ZM14.9593 10.1019C14.9593 10.0011 14.9295 9.91523 14.8745 9.85339C14.8253 9.79727 14.7634 9.77208 14.6913 9.77208C14.6191 9.77208 14.5642 9.79842 14.5183 9.85339C14.4691 9.91523 14.4428 9.99769 14.4428 10.1019C14.4428 10.2061 14.4725 10.2886 14.5275 10.3504C14.5767 10.4065 14.6386 10.4317 14.7073 10.4317C14.8516 10.4317 14.9593 10.3103 14.9593 10.1019Z" fill="#1A1D1E"/>
<path d="M16.0908 11.397H15.509L15.5846 11.2367H15.7254C15.706 11.2069 15.6957 11.1749 15.6957 11.1348C15.6957 11.0042 15.7907 10.9023 15.9121 10.9023C15.9808 10.9023 16.0369 10.9321 16.085 10.9939L16.006 11.1153C15.9797 11.089 15.9499 11.0729 15.9178 11.0729C15.8789 11.0729 15.8594 11.0993 15.8594 11.1485C15.8594 11.2069 15.9018 11.2367 15.9843 11.2367H16.0919V11.397H16.0908ZM16.0873 10.7133H15.7438L15.7277 8.59692H16.0713L16.0873 10.7133Z" fill="#1A1D1E"/>
</svg>