<svg width="75" height="32" viewBox="0 0 226 96" fill="none" xmlns="http://www.w3.org/2000/svg">
<rect width="226" height="96" rx="8" fill="#6322D0"/>
<path d="M101.719 23.0852V40.1854C102.516 40.1854 103.293 40.0928 104.038 39.9204C105.916 39.4826 107.591 38.5254 108.911 37.2077C110.751 35.3678 111.888 32.8251 111.888 30.0179V23.0852H101.719ZM105.556 43.3202C103.218 45.1828 101.719 48.0554 101.719 51.2778V73H111.888V41.1102C109.496 41.1102 107.294 41.9377 105.556 43.3202ZM146.206 46.2378C145.906 46.1127 145.596 45.9876 145.278 45.8704C143.071 45.0651 140.749 44.5253 138.501 44.005C137.183 43.7002 135.824 43.3851 134.516 43.02C132.458 42.4478 130.459 41.8603 128.591 40.9925C126.698 40.1127 125.853 38.5078 126.081 36.225C126.231 34.81 127.036 33.7203 128.059 32.9475C128.749 32.4253 129.539 32.05 130.291 31.8179C131.566 31.425 132.969 31.2179 134.341 31.2179C135.514 31.2179 137.344 31.375 139.069 32.1677C139.979 32.5875 140.858 33.1851 141.596 34.0279C142.329 34.8628 142.931 35.9326 143.378 37.1878C143.394 37.235 143.423 37.3555 143.466 37.5079C143.939 39.2801 144.081 39.8152 144.876 39.8152L145.051 39.8101L145.131 39.7851C145.248 39.7629 145.368 39.7425 145.486 39.7203C146.763 39.4905 148.029 39.2551 149.374 39.0077L152.266 38.4776L153.169 38.2576L152.994 37.3902C152.966 37.2475 152.939 37.1099 152.901 36.9705C152.861 36.7402 152.693 35.8103 152.319 34.5825C151.729 32.6625 150.641 30.0253 148.764 28.2327C148.758 28.2276 148.756 28.2253 148.751 28.2202C147.826 27.3404 146.731 26.5425 145.486 25.8429C145.228 25.6979 144.963 25.5575 144.694 25.4204L144.596 25.3629L144.539 25.3425C142.896 24.5252 141.101 23.9127 139.191 23.5277C138.486 23.3929 137.833 23.2928 137.199 23.2201C136.398 23.1302 135.558 23.0852 134.701 23.0852C132.571 23.0852 130.406 23.3526 128.339 23.8803C123.361 25.1554 118.959 27.9455 117.026 32.1677C116.534 33.2375 116.203 34.4 116.061 35.6551C115.841 37.5876 116.116 39.4854 116.833 41.2529C117.958 44.0477 120.186 46.5278 123.313 48.3352C124.123 48.8027 124.988 49.2202 125.931 49.5954C126.911 49.9202 128.001 50.2478 129.356 50.6249C129.986 50.8028 130.613 50.9752 131.244 51.1503C132.146 51.3978 133.046 51.6452 133.941 51.9079C134.826 52.165 135.729 52.3754 136.601 52.5801C137.981 52.9026 139.286 53.2052 140.523 53.6852C140.886 53.8251 141.223 53.9775 141.536 54.1429C143.631 55.2377 144.574 56.8529 144.338 58.96C144.114 60.9954 142.774 62.4229 140.961 63.3051C139.421 64.0528 137.534 64.4101 135.698 64.4101C134.936 64.4101 134.201 64.3475 133.513 64.2252C131.833 63.9227 130.426 63.4876 129.243 62.965C124.203 60.7401 123.263 56.9729 122.908 55.55C122.801 55.1279 122.744 54.8926 122.581 54.6776L122.224 54.205L121.106 54.4501C119.281 54.8504 117.548 55.2275 115.856 55.6052L114.066 55.9925L114.211 56.8654C114.491 58.55 114.901 60.1304 115.434 61.5727C115.544 61.8576 115.658 62.1375 115.784 62.4127C117.621 66.4653 121.159 69.4904 126.071 71.1875C126.131 71.2125 126.186 71.2329 126.231 71.2454C126.313 71.2751 126.396 71.3001 126.413 71.3001C127.128 71.5053 127.841 71.6851 128.554 71.8375C129.641 72.0775 130.724 72.2578 131.788 72.375C132.681 72.4751 133.621 72.5251 134.581 72.5251C143.469 72.5251 153.444 68.4451 154.339 59.485C154.368 59.2028 154.386 58.9179 154.396 58.6353C154.406 58.5477 154.409 58.4675 154.409 58.3777V58.2878C154.491 52.62 151.731 48.565 146.206 46.2378ZM96.5535 27.3001C96.5535 27.2727 96.5535 27.2454 96.5438 27.225C96.4886 26.9303 96.4034 26.6329 96.3038 26.3577C96.2834 26.3378 96.2834 26.3104 96.2662 26.2826C96.1634 26.0051 96.0262 25.7452 95.8687 25.4978C95.8488 25.4602 95.8312 25.4329 95.8136 25.4051C95.6459 25.1554 95.461 24.9154 95.2687 24.7027C95.2386 24.6754 95.221 24.6476 95.1937 24.6276C94.9713 24.3978 94.7211 24.1852 94.4537 24.0003C94.4436 23.9901 94.4436 23.9901 94.4361 23.9804H94.4259C93.8811 23.6028 93.2612 23.3327 92.5861 23.1951C92.5861 23.1853 92.5787 23.1853 92.5787 23.1853C92.2812 23.1302 91.9685 23.0927 91.6534 23.0927C91.6335 23.0927 91.6062 23.0852 91.5784 23.0852H91.5511C91.2559 23.0852 90.9687 23.1126 90.6837 23.1677C90.6559 23.1677 90.6263 23.1677 90.6087 23.1779C90.3038 23.2326 90.0263 23.3151 89.7487 23.4179C89.7209 23.4351 89.6936 23.4351 89.6663 23.4554C89.5662 23.4902 89.4684 23.5328 89.3735 23.5801C89.2034 23.6579 89.0385 23.7529 88.8809 23.8525C88.8536 23.8701 88.8161 23.8877 88.7786 23.9076C88.5386 24.0726 88.306 24.25 88.0859 24.4525C88.0586 24.4803 88.0284 24.4979 88.0011 24.5252C87.781 24.7476 87.5684 24.9978 87.3835 25.2578C87.3835 25.2652 87.3738 25.2754 87.3636 25.2851L87.3362 25.3203V25.33L84.2913 29.7501L74.1238 44.5026V44.505L69.2459 51.5803V28.1679C69.2459 27.8727 69.2084 27.5855 69.1635 27.3001C69.1635 27.2727 69.1537 27.2454 69.1537 27.225C69.0986 26.9303 69.0161 26.6329 68.9036 26.3577C68.8961 26.3378 68.8859 26.3104 68.8762 26.2826C68.7659 26.0051 68.6362 25.7452 68.4787 25.4978C68.4611 25.4602 68.4412 25.4329 68.4236 25.4051C68.2586 25.1554 68.0738 24.9154 67.8685 24.7027C67.8509 24.6754 67.8236 24.6476 67.8036 24.6276C67.5734 24.3978 67.3338 24.1852 67.066 24.0003C67.0563 23.9901 67.0563 23.9901 67.0461 23.9804H67.0359C66.4911 23.6028 65.8734 23.3327 65.1984 23.1951C65.1984 23.1853 65.1887 23.1853 65.1887 23.1853C64.8838 23.1302 64.5785 23.0927 64.2634 23.0927C64.2361 23.0927 64.2185 23.0852 64.1911 23.0852H64.1638C63.8659 23.0852 63.5809 23.1126 63.2937 23.1677C63.2659 23.1677 63.2386 23.1677 63.2112 23.1779C62.9138 23.2326 62.6284 23.3151 62.3513 23.4179C62.3235 23.4351 62.2962 23.4351 62.2688 23.4554C61.9987 23.5551 61.7411 23.6954 61.4909 23.8525C61.4534 23.8701 61.426 23.8877 61.3885 23.9076C61.1388 24.0726 60.9085 24.25 60.6959 24.4525C60.6685 24.4803 60.6412 24.4979 60.6134 24.5252C60.3813 24.7476 60.1788 24.9978 59.9935 25.2578C59.9837 25.2652 59.9837 25.2754 59.9763 25.2851L59.9485 25.3203V25.33L56.9013 29.7529L46.7337 44.5077L41.8587 51.5826V51.5775L32.5854 65.0342C32.0011 65.8816 31.6888 66.886 31.6888 67.9151C31.6888 68.2125 31.7162 68.4979 31.7634 68.7852C31.7736 68.8125 31.7736 68.8403 31.7736 68.8602C31.8288 69.1554 31.921 69.4501 32.021 69.7276C32.0312 69.7452 32.041 69.7753 32.0512 69.8026C32.161 70.0802 32.2986 70.3378 32.4487 70.5875C32.4663 70.625 32.4834 70.6528 32.5112 70.6802C32.6688 70.9304 32.8536 71.1704 33.0584 71.3826C33.0862 71.4104 33.1038 71.4377 33.1312 71.4576C33.3535 71.6879 33.6037 71.9001 33.8613 72.0849C33.8711 72.0951 33.8813 72.0951 33.8813 72.1026C33.8887 72.1026 33.8887 72.1026 33.8984 72.1127C34.0935 72.2425 34.2959 72.3527 34.4984 72.4653C34.5461 72.4825 34.5911 72.5001 34.6388 72.5279C34.8413 72.6201 35.0535 72.7053 35.2661 72.7776C35.2935 72.7776 35.3134 72.7878 35.331 72.7878C35.526 72.8425 35.7188 72.8902 35.9236 72.9254C35.9884 72.9351 36.0436 72.9453 36.1084 72.9527C36.3109 72.9829 36.5138 72.9903 36.7186 73H36.8386C37.0036 72.9903 37.1713 72.9829 37.3288 72.9625C37.3835 72.9625 37.4386 72.9527 37.4938 72.9453C37.6337 72.9254 37.7634 72.8976 37.901 72.8703C37.9562 72.8629 38.0113 72.8425 38.0687 72.8253C38.1962 72.7975 38.3259 72.7503 38.4459 72.7127C38.501 72.6951 38.5585 72.6678 38.621 72.6502C38.7438 72.6025 38.8638 72.5478 38.9838 72.4927C39.0287 72.4653 39.0834 72.4375 39.1385 72.4079C39.2961 72.3351 39.4462 72.2425 39.5838 72.1503C39.6287 72.1225 39.6663 72.0849 39.7135 72.0576C39.8238 71.9751 39.9438 71.8904 40.0559 71.7977C40.1111 71.7527 40.156 71.6976 40.2111 71.6504C40.3038 71.5679 40.3886 71.4752 40.4711 71.3927C40.516 71.3353 40.5637 71.2904 40.6087 71.2352C40.7212 71.1152 40.8134 70.9952 40.9061 70.865C40.9237 70.8451 40.9436 70.8275 40.9511 70.8002L40.9886 70.7626V70.7552L46.7337 62.4178L56.9013 47.6625L59.0738 44.5101L59.0784 44.5026V67.9151C59.0784 68.2125 59.1062 68.4979 59.1535 68.7852C59.1609 68.8125 59.1609 68.8403 59.1711 68.8602C59.2262 69.1554 59.3087 69.4501 59.4111 69.7276C59.4213 69.7452 59.4287 69.7753 59.4384 69.8026C59.551 70.0802 59.6886 70.3378 59.8461 70.5875C59.8628 70.6236 59.8823 70.6505 59.8994 70.6774C60.0606 70.9285 60.2353 71.1717 60.4461 71.383C60.4739 71.4104 60.4939 71.4377 60.5212 71.4576C60.7436 71.6879 60.991 71.9001 61.2611 72.0849C61.2611 72.0951 61.2685 72.0951 61.2787 72.1026C61.2787 72.1026 61.2884 72.1026 61.2884 72.1127C61.4812 72.2425 61.686 72.3527 61.8986 72.4653C61.9334 72.4825 61.9811 72.5001 62.026 72.5279C62.2313 72.6201 62.4435 72.7053 62.6659 72.7776C62.6835 72.7776 62.7011 72.7878 62.721 72.7878C62.9138 72.8425 63.1088 72.8902 63.3113 72.9254L63.5059 72.9527C63.7009 72.9829 63.9034 72.9903 64.1059 73H64.2259C64.3936 72.9903 64.5609 72.9829 64.7263 72.9625C64.7809 72.9625 64.8287 72.9527 64.8838 72.9453C65.0209 72.9254 65.1613 72.8976 65.2911 72.8703C65.3462 72.8629 65.4013 72.8425 65.456 72.8253C65.5862 72.7975 65.7159 72.7503 65.8359 72.7127C65.8911 72.6951 65.9559 72.6678 66.0111 72.6502C66.1311 72.6025 66.2511 72.5478 66.3711 72.4927C66.4262 72.4653 66.4836 72.4375 66.5286 72.4079C66.6861 72.3351 66.8334 72.2425 66.9738 72.1503C67.0188 72.1225 67.0563 72.0849 67.1012 72.0576C67.2212 71.9751 67.3338 71.8904 67.4436 71.7977C67.4988 71.7527 67.5562 71.6976 67.6012 71.6504C67.6934 71.5679 67.7763 71.4752 67.8611 71.3927C67.9162 71.3353 67.9612 71.2904 68.0084 71.2352C68.1085 71.1152 68.2012 70.9952 68.2934 70.865C68.3138 70.8451 68.3309 70.8275 68.3513 70.8002L68.3786 70.7626V70.7552L69.2237 69.5279L74.1238 62.4178L84.2913 47.6625L86.4684 44.5026V72.5376C86.4684 72.6951 86.4763 72.8527 86.4962 73H96.6086C96.6262 72.8527 96.636 72.6951 96.636 72.5376V28.1679C96.636 27.8727 96.6086 27.5855 96.5535 27.3001ZM177.916 27.0527C177.351 26.7353 176.673 26.625 176.011 26.7103C175.819 26.7302 175.629 26.77 175.443 26.8252C174.256 27.1754 173.573 28.1503 173.474 29.5801C173.466 29.6903 173.464 29.7978 173.464 29.9025C173.481 31.4454 174.404 32.5875 175.804 32.8678C175.993 32.9053 176.193 32.9275 176.401 32.9326C176.731 32.8678 177.069 32.8326 177.386 32.7325C178.568 32.3577 179.263 31.3777 179.313 29.9502C179.363 28.475 178.761 27.5303 177.916 27.0527ZM177.916 27.0527C177.351 26.7353 176.673 26.625 176.011 26.7103C175.819 26.7302 175.629 26.77 175.443 26.8252C174.256 27.1754 173.573 28.1503 173.474 29.5801C173.466 29.6903 173.464 29.7978 173.464 29.9025C173.481 31.4454 174.404 32.5875 175.804 32.8678C175.993 32.9053 176.193 32.9275 176.401 32.9326C176.731 32.8678 177.069 32.8326 177.386 32.7325C178.568 32.3577 179.263 31.3777 179.313 29.9502C179.363 28.475 178.761 27.5303 177.916 27.0527ZM165.191 26.6454C165.061 26.675 164.933 26.7154 164.813 26.7626C163.783 27.1504 163.158 28.0854 163.049 29.4077C162.914 31.0576 163.844 32.3354 165.176 32.6852C165.706 32.8228 166.301 32.8154 166.919 32.625C168.153 32.2428 168.884 31.1553 168.893 29.6825C168.911 27.5178 167.256 26.1626 165.191 26.6454ZM165.176 32.6852C165.706 32.8228 166.301 32.8154 166.919 32.625C168.153 32.2428 168.884 31.1553 168.893 29.6825C168.911 27.5178 167.256 26.1626 165.191 26.6454C165.061 26.675 164.933 26.7154 164.813 26.7626C163.783 27.1504 163.158 28.0854 163.049 29.4077C162.914 31.0576 163.844 32.3354 165.176 32.6852ZM177.916 27.0527C177.351 26.7353 176.673 26.625 176.011 26.7103C175.819 26.7302 175.629 26.77 175.443 26.8252C174.256 27.1754 173.573 28.1503 173.474 29.5801C173.466 29.6903 173.464 29.7978 173.464 29.9025C173.481 31.4454 174.404 32.5875 175.804 32.8678C175.993 32.9053 176.193 32.9275 176.401 32.9326C176.731 32.8678 177.069 32.8326 177.386 32.7325C178.568 32.3577 179.263 31.3777 179.313 29.9502C179.363 28.475 178.761 27.5303 177.916 27.0527ZM190.941 25.1753C189.739 28.495 188.536 31.8179 187.324 35.1353C186.868 36.3751 185.974 37.4676 184.796 38.0801C184.021 38.4851 183.239 38.6129 182.446 38.5476C181.931 38.505 181.414 38.3827 180.891 38.2029C181.111 37.5876 181.326 36.9904 181.546 36.3751C182.116 36.5502 182.646 36.7277 183.234 36.6026C184.358 36.3654 185.009 35.625 185.399 34.6154C185.453 34.4727 185.383 34.26 185.324 34.0979C184.264 31.1651 183.196 28.2327 182.129 25.3004C182.079 25.16 182.028 25.015 181.966 24.8375H184.001C184.819 27.1254 185.641 29.435 186.466 31.7451C186.499 31.7451 186.529 31.7428 186.561 31.7428C187.378 29.4475 188.198 27.1527 189.026 24.8329H191.034C191.001 24.9552 190.981 25.0678 190.941 25.1753ZM179.346 34.6154V33.7305C179.266 33.7402 179.209 33.7305 179.186 33.755C178.301 34.7349 176.659 35.0852 175.129 34.7229C174.209 34.5028 173.331 34.0251 172.679 33.2727C172.459 33.0179 172.264 32.7302 172.101 32.41C171.744 31.7002 171.551 30.8926 171.521 30.0777C171.471 28.9004 171.753 27.7078 172.346 26.7677C172.448 26.6028 172.561 26.4476 172.681 26.3002C173.673 25.1002 175.609 24.4451 177.318 24.8329C177.748 24.9279 178.163 25.09 178.543 25.3254C178.744 25.4454 178.933 25.5876 179.111 25.7503C179.154 25.7878 179.204 25.8174 179.331 25.9124V24.8352H181.256V34.6154H179.346ZM161.109 24.8375H163.016C163.029 25.015 163.041 25.1827 163.056 25.4102C163.228 25.3203 163.371 25.2476 163.514 25.1702C163.849 24.9927 164.204 24.8551 164.571 24.7602C165.569 24.4951 166.646 24.5276 167.606 24.8352C168.076 24.9853 168.519 25.2003 168.911 25.4778C169.096 25.6103 169.269 25.7554 169.429 25.9124C170.269 26.745 170.689 27.7801 170.813 28.9402C170.956 30.2204 170.771 31.4454 170.096 32.5624C169.774 33.0976 169.369 33.5229 168.911 33.8528C168.379 34.235 167.771 34.4829 167.134 34.6154C166.534 34.7405 165.906 34.7627 165.286 34.6951C165.276 34.6951 165.268 34.6928 165.259 34.69C164.481 34.6029 163.771 34.3226 163.049 33.8977V37.5501H161.109V24.8375ZM157.831 23V40.1428L184.144 40.1025C189.758 40.1025 194.311 35.5504 194.311 29.9326V23H157.831ZM165.191 26.6454C165.061 26.675 164.933 26.7154 164.813 26.7626C163.783 27.1504 163.158 28.0854 163.049 29.4077C162.914 31.0576 163.844 32.3354 165.176 32.6852C165.706 32.8228 166.301 32.8154 166.919 32.625C168.153 32.2428 168.884 31.1553 168.893 29.6825C168.911 27.5178 167.256 26.1626 165.191 26.6454ZM177.916 27.0527C177.351 26.7353 176.673 26.625 176.011 26.7103C175.819 26.7302 175.629 26.77 175.443 26.8252C174.256 27.1754 173.573 28.1503 173.474 29.5801C173.466 29.6903 173.464 29.7978 173.464 29.9025C173.481 31.4454 174.404 32.5875 175.804 32.8678C175.993 32.9053 176.193 32.9275 176.401 32.9326C176.731 32.8678 177.069 32.8326 177.386 32.7325C178.568 32.3577 179.263 31.3777 179.313 29.9502C179.363 28.475 178.761 27.5303 177.916 27.0527ZM177.916 27.0527C177.351 26.7353 176.673 26.625 176.011 26.7103C175.819 26.7302 175.629 26.77 175.443 26.8252C174.256 27.1754 173.573 28.1503 173.474 29.5801C173.466 29.6903 173.464 29.7978 173.464 29.9025C173.481 31.4454 174.404 32.5875 175.804 32.8678C175.993 32.9053 176.193 32.9275 176.401 32.9326C176.731 32.8678 177.069 32.8326 177.386 32.7325C178.568 32.3577 179.263 31.3777 179.313 29.9502C179.363 28.475 178.761 27.5303 177.916 27.0527ZM165.191 26.6454C165.061 26.675 164.933 26.7154 164.813 26.7626C163.783 27.1504 163.158 28.0854 163.049 29.4077C162.914 31.0576 163.844 32.3354 165.176 32.6852C165.706 32.8228 166.301 32.8154 166.919 32.625C168.153 32.2428 168.884 31.1553 168.893 29.6825C168.911 27.5178 167.256 26.1626 165.191 26.6454ZM165.191 26.6454C165.061 26.675 164.933 26.7154 164.813 26.7626C163.783 27.1504 163.158 28.0854 163.049 29.4077C162.914 31.0576 163.844 32.3354 165.176 32.6852C165.706 32.8228 166.301 32.8154 166.919 32.625C168.153 32.2428 168.884 31.1553 168.893 29.6825C168.911 27.5178 167.256 26.1626 165.191 26.6454Z" fill="white"/>
</svg>
