<?xml version="1.0" encoding="utf-8"?>
<svg viewBox="-0.5 -0.5 75.0002 31.9997" width="75px" height="32px" xmlns="http://www.w3.org/2000/svg">
  <g transform="matrix(0.054905004799366004, 0, 0, 0.048558004200458534, -0.4725480079650808, -0.4757210314273834)">
    <path style="opacity:0.999" fill="#139ea6" d="M 157.5,-0.5 C 326.833,-0.5 496.167,-0.5 665.5,-0.5C 844,0.333177 1022.67,0.833177 1201.5,1C 1270.7,7.24216 1320.53,41.4088 1351,103.5C 1358.36,120.951 1363.19,138.951 1365.5,157.5C 1365.5,270.167 1365.5,382.833 1365.5,495.5C 1356.42,575.751 1313.42,628.251 1236.5,653C 1226.45,655.358 1216.45,657.192 1206.5,658.5C 1055.17,658.5 903.833,658.5 752.5,658.5C 556.667,657.667 360.667,657.167 164.5,657C 95.767,651.243 45.9337,617.743 15,556.5C 6.84053,538.185 1.67387,519.185 -0.5,499.5C -0.5,387.5 -0.5,275.5 -0.5,163.5C 4.95806,100.726 34.6247,53.226 88.5,21C 110.228,9.32531 133.228,2.15864 157.5,-0.5 Z"/>
  </g>
  <g transform="matrix(0.054905004799366004, 0, 0, 0.048558004200458534, -0.4725480079650808, -0.4757210314273834)">
    <path style="opacity:1" fill="#fdfefe" d="M 1179.5,317.5 C 1185.68,315.748 1192.01,315.081 1198.5,315.5C 1203.53,315.59 1208.2,316.924 1212.5,319.5C 1191.49,386.916 1168.66,453.583 1144,519.5C 1139.97,528.749 1134.14,536.582 1126.5,543C 1122.69,544.428 1119.03,545.928 1115.5,547.5C 1103.51,548.747 1091.51,548.747 1079.5,547.5C 1077.83,547.5 1076.17,547.5 1074.5,547.5C 1074.5,536.5 1074.5,525.5 1074.5,514.5C 1085.63,514.978 1095.96,512.478 1105.5,507C 1110.56,501.817 1112.39,495.651 1111,488.5C 1101.73,452.685 1090.06,417.685 1076,383.5C 1032.4,294.576 968.571,224.076 884.5,172C 863.791,160.958 842.457,151.291 820.5,143C 812.966,141.45 805.632,139.616 798.5,137.5C 795.146,135.742 791.479,134.742 787.5,134.5C 777.216,132.316 766.883,130.316 756.5,128.5C 751.449,126.656 746.116,125.656 740.5,125.5C 731.183,124.613 721.85,123.946 712.5,123.5C 697.14,122.157 681.807,122.49 666.5,124.5C 657.86,124.732 649.527,126.065 641.5,128.5C 629.5,130.89 617.5,133.39 605.5,136C 573.012,146.827 541.012,158.827 509.5,172C 482.931,184.453 456.598,197.12 430.5,210C 480.411,169.534 535.411,137.534 595.5,114C 616.98,106.134 638.98,99.9675 661.5,95.5C 668.08,95.2605 674.413,94.2605 680.5,92.5C 756.431,81.8541 828.098,94.6874 895.5,131C 935.507,154.103 972.007,181.937 1005,214.5C 1063.12,275.362 1107.12,345.362 1137,424.5C 1138.03,421.05 1139.36,417.717 1141,414.5C 1147.71,388.022 1155.05,361.689 1163,335.5C 1165.63,329.193 1169.47,323.693 1174.5,319C 1176.02,317.991 1177.69,317.491 1179.5,317.5 Z"/>
  </g>
  <g transform="matrix(0.054905004799366004, 0, 0, 0.048558004200458534, -0.4725480079650808, -0.4757210314273834)">
    <path style="opacity:1" fill="#b8e1e4" d="M 680.5,92.5 C 674.413,94.2605 668.08,95.2605 661.5,95.5C 667.543,93.4919 673.876,92.4919 680.5,92.5 Z"/>
  </g>
  <g transform="matrix(0.054905004799366004, 0, 0, 0.048558004200458534, -0.4725480079650808, -0.4757210314273834)">
    <path style="opacity:1" fill="#7ac8cc" d="M 712.5,123.5 C 697.159,123.558 681.826,123.891 666.5,124.5C 681.807,122.49 697.14,122.157 712.5,123.5 Z"/>
  </g>
  <g transform="matrix(0.054905004799366004, 0, 0, 0.048558004200458534, -0.4725480079650808, -0.4757210314273834)">
    <path style="opacity:1" fill="#6ac0c5" d="M 666.5,124.5 C 658.373,126.377 650.04,127.711 641.5,128.5C 649.527,126.065 657.86,124.732 666.5,124.5 Z"/>
  </g>
  <g transform="matrix(0.054905004799366004, 0, 0, 0.048558004200458534, -0.4725480079650808, -0.4757210314273834)">
    <path style="opacity:1" fill="#b1dfe1" d="M 740.5,125.5 C 746.116,125.656 751.449,126.656 756.5,128.5C 750.863,128.415 745.529,127.415 740.5,125.5 Z"/>
  </g>
  <g transform="matrix(0.054905004799366004, 0, 0, 0.048558004200458534, -0.4725480079650808, -0.4757210314273834)">
    <path style="opacity:1" fill="#9ed7d9" d="M 787.5,134.5 C 791.479,134.742 795.146,135.742 798.5,137.5C 794.521,137.258 790.854,136.258 787.5,134.5 Z"/>
  </g>
  <g transform="matrix(0.054905004799366004, 0, 0, 0.048558004200458534, -0.4725480079650808, -0.4757210314273834)">
    <path style="opacity:1" fill="#19373a" d="M 304.5,205.5 C 307.898,205.18 311.232,205.513 314.5,206.5C 314,207.881 313,208.547 311.5,208.5C 309.137,207.319 306.803,207.319 304.5,208.5C 303.438,207.575 303.438,206.575 304.5,205.5 Z"/>
  </g>
  <g transform="matrix(0.054905004799366004, 0, 0, 0.048558004200458534, -0.4725480079650808, -0.4757210314273834)">
    <path style="opacity:1" fill="#eff8f8" d="M 161.5,211.5 C 163.167,211.5 164.833,211.5 166.5,211.5C 166.197,219.889 166.53,228.222 167.5,236.5C 178.815,240.187 183.148,236.187 180.5,224.5C 182.167,224.5 183.833,224.5 185.5,224.5C 185.666,229.179 185.499,233.845 185,238.5C 184.167,239.333 183.333,240.167 182.5,241C 176.5,241.667 170.5,241.667 164.5,241C 163.667,240.167 162.833,239.333 162,238.5C 161.5,229.506 161.334,220.506 161.5,211.5 Z"/>
  </g>
  <g transform="matrix(0.054905004799366004, 0, 0, 0.048558004200458534, -0.4725480079650808, -0.4757210314273834)">
    <path style="opacity:1" fill="#1b2527" d="M 256.5,211.5 C 258.167,211.5 259.833,211.5 261.5,211.5C 261.5,221.5 261.5,231.5 261.5,241.5C 259.833,241.5 258.167,241.5 256.5,241.5C 256.5,231.5 256.5,221.5 256.5,211.5 Z"/>
  </g>
  <g transform="matrix(0.054905004799366004, 0, 0, 0.048558004200458534, -0.4725480079650808, -0.4757210314273834)">
    <path style="opacity:1" fill="#1a1e20" d="M 425.5,213.5 C 426.873,213.343 428.207,213.51 429.5,214C 437.852,223.352 446.519,232.352 455.5,241C 446.996,250.337 437.996,259.17 428.5,267.5C 424.691,264.858 421.024,262.025 417.5,259C 411.961,252.631 406.294,246.465 400.5,240.5C 409.245,231.76 417.578,222.76 425.5,213.5 Z"/>
  </g>
  <g transform="matrix(0.054905004799366004, 0, 0, 0.048558004200458534, -0.4725480079650808, -0.4757210314273834)">
    <path style="opacity:1" fill="#1b2d2f" d="M 359.5,211.5 C 361.5,211.5 363.5,211.5 365.5,211.5C 365.5,221.5 365.5,231.5 365.5,241.5C 363.5,241.5 361.5,241.5 359.5,241.5C 359.5,231.5 359.5,221.5 359.5,211.5 Z"/>
  </g>
  <g transform="matrix(0.054905004799366004, 0, 0, 0.048558004200458534, -0.4725480079650808, -0.4757210314273834)">
    <path style="opacity:1" fill="#edf7f8" d="M 130.5,239.5 C 130.5,237.5 130.5,235.5 130.5,233.5C 131.833,233.5 133.167,233.5 134.5,233.5C 134.198,236.059 134.532,238.393 135.5,240.5C 138.535,247.207 143.035,248.207 149,243.5C 149.813,241.564 150.313,239.564 150.5,237.5C 147.167,237.5 143.833,237.5 140.5,237.5C 140.335,234.482 140.502,231.482 141,228.5C 142.947,224.443 146.114,222.943 150.5,224C 152.329,225.113 153.163,226.613 153,228.5C 150.619,229.435 148.119,229.768 145.5,229.5C 145.5,230.5 145.5,231.5 145.5,232.5C 148.833,232.5 152.167,232.5 155.5,232.5C 156.934,240.558 154.268,246.725 147.5,251C 137.35,253.601 131.683,249.768 130.5,239.5 Z"/>
  </g>
  <g transform="matrix(0.054905004799366004, 0, 0, 0.048558004200458534, -0.4725480079650808, -0.4757210314273834)">
    <path style="opacity:1" fill="#174245" d="M 249.5,225.5 C 248.167,225.5 246.833,225.5 245.5,225.5C 246.089,229.971 245.423,233.971 243.5,237.5C 244.436,233.265 244.769,228.931 244.5,224.5C 246.415,224.216 248.081,224.549 249.5,225.5 Z"/>
  </g>
  <g transform="matrix(0.054905004799366004, 0, 0, 0.048558004200458534, -0.4725480079650808, -0.4757210314273834)">
    <path style="opacity:1" fill="#1a2224" d="M 291.5,232.5 C 293.948,233.473 296.615,233.806 299.5,233.5C 299.693,237.566 299.36,241.566 298.5,245.5C 294.628,251.147 289.295,252.98 282.5,251C 277.432,247.99 275.099,243.49 275.5,237.5C 275.5,236.167 275.5,234.833 275.5,233.5C 276.833,233.5 278.167,233.5 279.5,233.5C 279.198,236.059 279.532,238.393 280.5,240.5C 283.992,248.996 288.825,249.663 295,242.5C 295.494,240.866 295.66,239.199 295.5,237.5C 292.167,237.5 288.833,237.5 285.5,237.5C 285.335,234.482 285.502,231.482 286,228.5C 288.053,224.708 291.219,223.542 295.5,225C 299.412,226.713 299.412,228.547 295.5,230.5C 293.929,229.691 292.262,229.357 290.5,229.5C 290.263,230.791 290.596,231.791 291.5,232.5 Z"/>
  </g>
  <g transform="matrix(0.054905004799366004, 0, 0, 0.048558004200458534, -0.4725480079650808, -0.4757210314273834)">
    <path style="opacity:1" fill="#194c50" d="M 349.5,225.5 C 345.766,225.323 342.099,225.656 338.5,226.5C 339.512,224.124 341.345,223.124 344,223.5C 346.221,223.393 348.054,224.06 349.5,225.5 Z"/>
  </g>
  <g transform="matrix(0.054905004799366004, 0, 0, 0.048558004200458534, -0.4725480079650808, -0.4757210314273834)">
    <path style="opacity:1" fill="#1a2224" d="M 349.5,225.5 C 354.778,230.634 354.778,235.8 349.5,241C 342.988,243.108 338.322,241.108 335.5,235C 334.167,234.333 332.833,234.333 331.5,235C 330.525,240.741 330.192,246.575 330.5,252.5C 328.833,252.5 327.167,252.5 325.5,252.5C 325.17,245.468 325.503,238.468 326.5,231.5C 329.877,229.675 333.543,229.008 337.5,229.5C 337.263,228.209 337.596,227.209 338.5,226.5C 342.099,225.656 345.766,225.323 349.5,225.5 Z"/>
  </g>
  <g transform="matrix(0.054905004799366004, 0, 0, 0.048558004200458534, -0.4725480079650808, -0.4757210314273834)">
    <path style="opacity:1" fill="#1a2224" d="M 249.5,225.5 C 249.666,229.846 249.499,234.179 249,238.5C 245.347,243.454 241.18,243.787 236.5,239.5C 232.974,243.058 229.14,243.392 225,240.5C 220.761,251.849 213.428,254.515 203,248.5C 199.918,242.554 198.751,236.221 199.5,229.5C 201.167,229.5 202.833,229.5 204.5,229.5C 204.334,233.846 204.501,238.179 205,242.5C 210.923,248.372 215.757,247.705 219.5,240.5C 220.486,236.03 220.819,231.363 220.5,226.5C 221.833,226.5 223.167,226.5 224.5,226.5C 224.335,229.518 224.502,232.518 225,235.5C 227.393,238.041 229.56,238.041 231.5,235.5C 232.477,232.713 232.81,229.713 232.5,226.5C 233.833,226.5 235.167,226.5 236.5,226.5C 236.336,229.187 236.503,231.854 237,234.5C 237.383,235.056 237.883,235.389 238.5,235.5C 239.635,237.213 241.302,237.88 243.5,237.5C 245.423,233.971 246.089,229.971 245.5,225.5C 246.833,225.5 248.167,225.5 249.5,225.5 Z"/>
  </g>
  <g transform="matrix(0.054905004799366004, 0, 0, 0.048558004200458534, -0.4725480079650808, -0.4757210314273834)">
    <path style="opacity:1" fill="#1a3f42" d="M 310.5,241.5 C 310.5,231.833 310.5,222.167 310.5,212.5C 309.5,212.5 308.5,212.5 307.5,212.5C 307.5,222.167 307.5,231.833 307.5,241.5C 306.506,231.681 306.173,221.681 306.5,211.5C 308.5,211.5 310.5,211.5 312.5,211.5C 313.141,221.889 312.474,231.889 310.5,241.5 Z"/>
  </g>
  <g transform="matrix(0.054905004799366004, 0, 0, 0.048558004200458534, -0.4725480079650808, -0.4757210314273834)">
    <path style="opacity:1" fill="#191c1e" d="M 310.5,241.5 C 309.5,241.5 308.5,241.5 307.5,241.5C 307.5,231.833 307.5,222.167 307.5,212.5C 308.5,212.5 309.5,212.5 310.5,212.5C 310.5,222.167 310.5,231.833 310.5,241.5 Z"/>
  </g>
  <g transform="matrix(0.054905004799366004, 0, 0, 0.048558004200458534, -0.4725480079650808, -0.4757210314273834)">
    <path style="opacity:1" fill="#175559" d="M 238.5,235.5 C 237.883,235.389 237.383,235.056 237,234.5C 236.503,231.854 236.336,229.187 236.5,226.5C 235.167,226.5 233.833,226.5 232.5,226.5C 232.81,229.713 232.477,232.713 231.5,235.5C 231.5,232.167 231.5,228.833 231.5,225.5C 233.5,225.5 235.5,225.5 237.5,225.5C 237.342,228.902 237.676,232.236 238.5,235.5 Z"/>
  </g>
  <g transform="matrix(0.054905004799366004, 0, 0, 0.048558004200458534, -0.4725480079650808, -0.4757210314273834)">
    <path style="opacity:1" fill="#165054" d="M 224.5,226.5 C 223.167,226.5 221.833,226.5 220.5,226.5C 220.819,231.363 220.486,236.03 219.5,240.5C 219.5,235.5 219.5,230.5 219.5,225.5C 221.415,225.216 223.081,225.549 224.5,226.5 Z"/>
  </g>
  <g transform="matrix(0.054905004799366004, 0, 0, 0.048558004200458534, -0.4725480079650808, -0.4757210314273834)">
    <path style="opacity:1" fill="#149096" d="M 342.5,228.5 C 346.211,227.846 348.211,229.346 348.5,233C 347.166,239.557 344.666,240.057 341,234.5C 340.252,232.16 340.752,230.16 342.5,228.5 Z"/>
  </g>
  <g transform="matrix(0.054905004799366004, 0, 0, 0.048558004200458534, -0.4725480079650808, -0.4757210314273834)">
    <path style="opacity:1" fill="#156367" d="M 280.5,240.5 C 279.532,238.393 279.198,236.059 279.5,233.5C 278.167,233.5 276.833,233.5 275.5,233.5C 275.5,234.833 275.5,236.167 275.5,237.5C 274.549,236.081 274.216,234.415 274.5,232.5C 276.5,232.5 278.5,232.5 280.5,232.5C 280.5,235.167 280.5,237.833 280.5,240.5 Z"/>
  </g>
  <g transform="matrix(0.054905004799366004, 0, 0, 0.048558004200458534, -0.4725480079650808, -0.4757210314273834)">
    <path style="opacity:1" fill="#87ced1" d="M 135.5,240.5 C 134.532,238.393 134.198,236.059 134.5,233.5C 133.167,233.5 131.833,233.5 130.5,233.5C 130.5,235.5 130.5,237.5 130.5,239.5C 129.532,237.393 129.198,235.059 129.5,232.5C 131.5,232.5 133.5,232.5 135.5,232.5C 135.5,235.167 135.5,237.833 135.5,240.5 Z"/>
  </g>
  <g transform="matrix(0.054905004799366004, 0, 0, 0.048558004200458534, -0.4725480079650808, -0.4757210314273834)">
    <path style="opacity:1" fill="#164f53" d="M 291.5,232.5 C 294.5,232.5 297.5,232.5 300.5,232.5C 300.666,236.514 300.499,240.514 300,244.5C 299.617,245.056 299.117,245.389 298.5,245.5C 299.36,241.566 299.693,237.566 299.5,233.5C 296.615,233.806 293.948,233.473 291.5,232.5 Z"/>
  </g>
  <g transform="matrix(0.054905004799366004, 0, 0, 0.048558004200458534, -0.4725480079650808, -0.4757210314273834)">
    <path style="opacity:1" fill="#f6fbfb" d="M 176.5,244.5 C 177.833,244.5 179.167,244.5 180.5,244.5C 180.5,245.833 180.5,247.167 180.5,248.5C 179.167,248.5 177.833,248.5 176.5,248.5C 176.5,247.167 176.5,245.833 176.5,244.5 Z"/>
  </g>
  <g transform="matrix(0.054905004799366004, 0, 0, 0.048558004200458534, -0.4725480079650808, -0.4757210314273834)">
    <path style="opacity:1" fill="#192426" d="M 359.5,245.5 C 363.584,244.945 364.251,245.945 361.5,248.5C 362.833,249.167 364.167,249.833 365.5,250.5C 362.833,251.833 360.167,251.833 357.5,250.5C 359.005,249.158 359.672,247.492 359.5,245.5 Z"/>
  </g>
  <g transform="matrix(0.054905004799366004, 0, 0, 0.048558004200458534, -0.4725480079650808, -0.4757210314273834)">
    <path style="opacity:1" fill="#1b292b" d="M 256.5,244.5 C 257.978,244.238 259.311,244.571 260.5,245.5C 259.147,246.524 258.48,247.857 258.5,249.5C 259.675,249.281 260.675,249.614 261.5,250.5C 258.554,251.655 255.554,251.821 252.5,251C 253.563,249.812 254.897,249.312 256.5,249.5C 256.5,247.833 256.5,246.167 256.5,244.5 Z"/>
  </g>
  <g transform="matrix(0.054905004799366004, 0, 0, 0.048558004200458534, -0.4725480079650808, -0.4757210314273834)">
    <path style="opacity:1" fill="#e7f5f5" d="M 138.5,255.5 C 139.833,255.5 141.167,255.5 142.5,255.5C 142.5,257.167 142.5,258.833 142.5,260.5C 141.167,260.5 139.833,260.5 138.5,260.5C 138.5,258.833 138.5,257.167 138.5,255.5 Z"/>
  </g>
  <g transform="matrix(0.054905004799366004, 0, 0, 0.048558004200458534, -0.4725480079650808, -0.4757210314273834)">
    <path style="opacity:1" fill="#f6fbfb" d="M 145.5,255.5 C 146.833,255.5 148.167,255.5 149.5,255.5C 149.5,256.833 149.5,258.167 149.5,259.5C 148.167,259.5 146.833,259.5 145.5,259.5C 145.5,258.167 145.5,256.833 145.5,255.5 Z"/>
  </g>
  <g transform="matrix(0.054905004799366004, 0, 0, 0.048558004200458534, -0.4725480079650808, -0.4757210314273834)">
    <path style="opacity:1" fill="#191f22" d="M 283.5,256.5 C 284.833,256.5 286.167,256.5 287.5,256.5C 287.5,257.833 287.5,259.167 287.5,260.5C 286.167,260.5 284.833,260.5 283.5,260.5C 283.5,259.167 283.5,257.833 283.5,256.5 Z"/>
  </g>
  <g transform="matrix(0.054905004799366004, 0, 0, 0.048558004200458534, -0.4725480079650808, -0.4757210314273834)">
    <path style="opacity:1" fill="#1a3235" d="M 290.5,255.5 C 291.833,255.5 293.167,255.5 294.5,255.5C 294.5,257.167 294.5,258.833 294.5,260.5C 292.833,260.5 291.167,260.5 289.5,260.5C 289.366,258.708 289.699,257.042 290.5,255.5 Z"/>
  </g>
  <g transform="matrix(0.054905004799366004, 0, 0, 0.048558004200458534, -0.4725480079650808, -0.4757210314273834)">
    <path style="opacity:1" fill="#191d1f" d="M 627.5,282.5 C 629.509,284.065 631.843,285.065 634.5,285.5C 653.794,295.154 664.461,310.82 666.5,332.5C 666.5,334.167 666.5,335.833 666.5,337.5C 646.6,338.136 626.933,337.469 607.5,335.5C 606.324,331.03 604.324,326.864 601.5,323C 598.271,320.134 594.771,317.634 591,315.5C 588.901,314.713 586.734,314.38 584.5,314.5C 578.681,313.347 572.681,313.181 566.5,314C 564.509,314.374 562.842,315.207 561.5,316.5C 552.393,322.968 551.393,330.468 558.5,339C 566.085,342.044 573.752,344.71 581.5,347C 602.747,349.929 623.081,355.929 642.5,365C 667.812,379.131 677.979,400.631 673,429.5C 668.523,449.632 657.356,464.799 639.5,475C 617.524,484.459 594.524,488.292 570.5,486.5C 564.739,484.943 558.739,484.276 552.5,484.5C 551.5,484.5 550.5,484.5 549.5,484.5C 547.562,482.837 545.228,482.171 542.5,482.5C 516.875,477.043 499.875,461.877 491.5,437C 489.287,430.676 487.954,424.176 487.5,417.5C 487.5,416.5 487.5,415.5 487.5,414.5C 507.5,414.5 527.5,414.5 547.5,414.5C 547.034,418.982 548.034,422.982 550.5,426.5C 559.138,443.149 572.804,449.649 591.5,446C 599.874,444.821 606.207,440.654 610.5,433.5C 611.117,433.389 611.617,433.056 612,432.5C 612.814,427.98 612.647,423.646 611.5,419.5C 608.733,414.898 605.066,411.064 600.5,408C 591.041,404.386 581.374,401.553 571.5,399.5C 568.619,397.32 565.286,396.32 561.5,396.5C 552.767,394.316 544.101,391.816 535.5,389C 529.992,385.745 524.325,382.745 518.5,380C 494.605,361.588 488.605,338.422 500.5,310.5C 507.615,297.247 518.282,288.247 532.5,283.5C 535.521,282.995 538.521,282.328 541.5,281.5C 542.713,281.253 543.38,280.586 543.5,279.5C 571.827,273.403 599.827,274.403 627.5,282.5 Z"/>
  </g>
  <g transform="matrix(0.054905004799366004, 0, 0, 0.048558004200458534, -0.4725480079650808, -0.4757210314273834)">
    <path style="opacity:1" fill="#193c3f" d="M 543.5,279.5 C 543.38,280.586 542.713,281.253 541.5,281.5C 538.521,282.328 535.521,282.995 532.5,283.5C 535.801,281.416 539.468,280.082 543.5,279.5 Z"/>
  </g>
  <g transform="matrix(0.054905004799366004, 0, 0, 0.048558004200458534, -0.4725480079650808, -0.4757210314273834)">
    <path style="opacity:1" fill="#191c1e" d="M 130.5,284.5 C 158.508,284.167 186.508,284.5 214.5,285.5C 225.451,307.067 236.117,328.734 246.5,350.5C 249.09,345.651 251.424,340.651 253.5,335.5C 256.363,332.449 258.197,328.783 259,324.5C 263.72,316.394 267.887,308.06 271.5,299.5C 273.245,297.967 274.245,295.967 274.5,293.5C 275.167,292.5 275.833,291.5 276.5,290.5C 278.185,289.816 279.185,288.483 279.5,286.5C 307.159,285.5 334.825,285.167 362.5,285.5C 362.5,351.833 362.5,418.167 362.5,484.5C 345.5,484.5 328.5,484.5 311.5,484.5C 311.833,434.162 311.5,383.829 310.5,333.5C 309.893,333.624 309.56,333.957 309.5,334.5C 308.662,334.842 308.328,335.508 308.5,336.5C 287.631,377.238 266.964,418.238 246.5,459.5C 225.499,418.164 204.499,376.831 183.5,335.5C 183.631,334.624 183.298,333.957 182.5,333.5C 181.5,383.829 181.167,434.162 181.5,484.5C 164.5,484.5 147.5,484.5 130.5,484.5C 130.5,417.833 130.5,351.167 130.5,284.5 Z"/>
  </g>
  <g transform="matrix(0.054905004799366004, 0, 0, 0.048558004200458534, -0.4725480079650808, -0.4757210314273834)">
    <path style="opacity:1" fill="#182f31" d="M 362.5,285.5 C 334.825,285.167 307.159,285.5 279.5,286.5C 279.185,288.483 278.185,289.816 276.5,290.5C 276.472,288.418 277.139,286.584 278.5,285C 306.67,284.17 334.67,284.336 362.5,285.5 Z"/>
  </g>
  <g transform="matrix(0.054905004799366004, 0, 0, 0.048558004200458534, -0.4725480079650808, -0.4757210314273834)">
    <path style="opacity:1" fill="#eff6f6" d="M 456.5,291.5 C 455.833,291.5 455.5,291.833 455.5,292.5C 454.508,292.328 453.842,292.662 453.5,293.5C 444.91,300.915 436.41,308.582 428,316.5C 425.178,314.347 422.344,312.181 419.5,310C 413.661,303.601 407.661,297.434 401.5,291.5C 401.5,290.833 401.167,290.5 400.5,290.5C 400.192,288.076 400.526,285.743 401.5,283.5C 401.833,283.667 402.167,283.833 402.5,284C 409.991,292.99 418.324,301.157 427.5,308.5C 436.552,301.956 444.885,294.456 452.5,286C 453.5,285.5 454.5,285 455.5,284.5C 456.474,286.743 456.808,289.076 456.5,291.5 Z"/>
  </g>
  <g transform="matrix(0.054905004799366004, 0, 0, 0.048558004200458534, -0.4725480079650808, -0.4757210314273834)">
    <path style="opacity:1" fill="#176065" d="M 627.5,282.5 C 630.346,282.552 632.68,283.552 634.5,285.5C 631.843,285.065 629.509,284.065 627.5,282.5 Z"/>
  </g>
  <g transform="matrix(0.054905004799366004, 0, 0, 0.048558004200458534, -0.4725480079650808, -0.4757210314273834)">
    <path style="opacity:1" fill="#1a1c1e" d="M 401.5,291.5 C 407.661,297.434 413.661,303.601 419.5,310C 422.344,312.181 425.178,314.347 428,316.5C 436.41,308.582 444.91,300.915 453.5,293.5C 455.496,356.825 456.163,420.491 455.5,484.5C 437.167,484.5 418.833,484.5 400.5,484.5C 400.168,419.998 400.501,355.665 401.5,291.5 Z"/>
  </g>
  <g transform="matrix(0.054905004799366004, 0, 0, 0.048558004200458534, -0.4725480079650808, -0.4757210314273834)">
    <path style="opacity:1" fill="#184f53" d="M 274.5,293.5 C 274.245,295.967 273.245,297.967 271.5,299.5C 271.755,297.033 272.755,295.033 274.5,293.5 Z"/>
  </g>
  <g transform="matrix(0.054905004799366004, 0, 0, 0.048558004200458534, -0.4725480079650808, -0.4757210314273834)">
    <path style="opacity:1" fill="#fdfefe" d="M 775.5,313.5 C 792.413,312.452 809.079,313.952 825.5,318C 852.344,329.547 866.844,350.047 869,379.5C 870.906,400.52 869.24,421.187 864,441.5C 855.31,468.52 836.81,483.353 808.5,486C 785.247,488.784 767.08,480.618 754,461.5C 753.667,486.167 753.333,510.833 753,535.5C 750.737,542.097 746.237,546.264 739.5,548C 729.839,548.5 720.172,548.666 710.5,548.5C 710.333,491.832 710.5,435.166 711,378.5C 716.059,340.275 737.559,318.608 775.5,313.5 Z"/>
  </g>
  <g transform="matrix(0.054905004799366004, 0, 0, 0.048558004200458534, -0.4725480079650808, -0.4757210314273834)">
    <path style="opacity:1" fill="#fdfefe" d="M 891.5,439.5 C 891.653,433.155 891.986,426.822 892.5,420.5C 895.013,409.786 900.68,400.953 909.5,394C 920.403,387.542 932.07,383.375 944.5,381.5C 952.536,381.07 960.536,380.237 968.5,379C 969.416,378.722 970.082,378.222 970.5,377.5C 979.883,377.231 987.049,373.231 992,365.5C 993.151,361.171 992.318,357.338 989.5,354C 986.833,352.333 984.167,350.667 981.5,349C 971.885,347.474 962.219,347.141 952.5,348C 946.346,348.738 942.012,351.904 939.5,357.5C 925.167,358.833 910.833,358.833 896.5,357.5C 900.433,337.738 911.767,324.238 930.5,317C 952.404,312.686 974.404,312.352 996.5,316C 1010.32,319.168 1021.48,326.335 1030,337.5C 1032.2,341.571 1033.54,345.904 1034,350.5C 1034.67,376.833 1034.67,403.167 1034,429.5C 1028.36,461.135 1009.53,479.302 977.5,484C 960.082,487.607 942.748,487.274 925.5,483C 905.436,475.424 894.102,460.924 891.5,439.5 Z"/>
  </g>
  <g transform="matrix(0.054905004799366004, 0, 0, 0.048558004200458534, -0.4725480079650808, -0.4757210314273834)">
    <path style="opacity:1" fill="#16696e" d="M 584.5,314.5 C 576.713,314.132 569.046,314.798 561.5,316.5C 562.842,315.207 564.509,314.374 566.5,314C 572.681,313.181 578.681,313.347 584.5,314.5 Z"/>
  </g>
  <g transform="matrix(0.054905004799366004, 0, 0, 0.048558004200458534, -0.4725480079650808, -0.4757210314273834)">
    <path style="opacity:1" fill="#a7dadd" d="M 1198.5,315.5 C 1192.01,315.081 1185.68,315.748 1179.5,317.5C 1180.35,316.034 1181.68,315.2 1183.5,315C 1188.68,314.184 1193.68,314.35 1198.5,315.5 Z"/>
  </g>
  <g transform="matrix(0.054905004799366004, 0, 0, 0.048558004200458534, -0.4725480079650808, -0.4757210314273834)">
    <path style="opacity:1" fill="#18373a" d="M 666.5,332.5 C 667.461,334.265 667.795,336.265 667.5,338.5C 647.5,338.5 627.5,338.5 607.5,338.5C 607.5,337.5 607.5,336.5 607.5,335.5C 626.933,337.469 646.6,338.136 666.5,337.5C 666.5,335.833 666.5,334.167 666.5,332.5 Z"/>
  </g>
  <g transform="matrix(0.054905004799366004, 0, 0, 0.048558004200458534, -0.4725480079650808, -0.4757210314273834)">
    <path style="opacity:1" fill="#189fa7" d="M 798.5,447.5 C 792.137,447.593 785.804,447.26 779.5,446.5C 779.55,444.41 778.55,443.077 776.5,442.5C 775.264,443.246 773.93,443.579 772.5,443.5C 767.239,441.408 763.406,437.741 761,432.5C 753.409,414.369 751.576,395.703 755.5,376.5C 757.074,374.898 757.741,372.898 757.5,370.5C 759.432,365.696 762.098,361.196 765.5,357C 776.251,348.872 788.251,346.538 801.5,350C 817.514,357.154 825.68,369.654 826,387.5C 827.143,402.166 825.476,416.499 821,430.5C 815.971,439.432 808.471,445.098 798.5,447.5 Z"/>
  </g>
  <g transform="matrix(0.054905004799366004, 0, 0, 0.048558004200458534, -0.4725480079650808, -0.4757210314273834)">
    <path style="opacity:1" fill="#156569" d="M 183.5,335.5 C 182.833,385.167 182.167,434.833 181.5,484.5C 181.167,434.162 181.5,383.829 182.5,333.5C 183.298,333.957 183.631,334.624 183.5,335.5 Z"/>
  </g>
  <g transform="matrix(0.054905004799366004, 0, 0, 0.048558004200458534, -0.4725480079650808, -0.4757210314273834)">
    <path style="opacity:1" fill="#9ad6d8" d="M 757.5,370.5 C 757.741,372.898 757.074,374.898 755.5,376.5C 755.259,374.102 755.926,372.102 757.5,370.5 Z"/>
  </g>
  <g transform="matrix(0.054905004799366004, 0, 0, 0.048558004200458534, -0.4725480079650808, -0.4757210314273834)">
    <path style="opacity:1" fill="#14797e" d="M 455.5,292.5 C 455.5,291.833 455.833,291.5 456.5,291.5C 457.833,356.167 457.833,420.833 456.5,485.5C 456.832,420.998 456.499,356.665 455.5,292.5 Z"/>
  </g>
  <g transform="matrix(0.054905004799366004, 0, 0, 0.048558004200458534, -0.4725480079650808, -0.4757210314273834)">
    <path style="opacity:1" fill="#ceebec" d="M 970.5,377.5 C 970.082,378.222 969.416,378.722 968.5,379C 960.536,380.237 952.536,381.07 944.5,381.5C 952.936,379.525 961.602,378.192 970.5,377.5 Z"/>
  </g>
  <g transform="matrix(0.054905004799366004, 0, 0, 0.048558004200458534, -0.4725480079650808, -0.4757210314273834)">
    <path style="opacity:1" fill="#184e52" d="M 561.5,396.5 C 565.286,396.32 568.619,397.32 571.5,399.5C 567.786,399.41 564.452,398.41 561.5,396.5 Z"/>
  </g>
  <g transform="matrix(0.054905004799366004, 0, 0, 0.048558004200458534, -0.4725480079650808, -0.4757210314273834)">
    <path style="opacity:1" fill="#183f42" d="M 400.5,290.5 C 401.167,290.5 401.5,290.833 401.5,291.5C 400.501,355.665 400.168,419.998 400.5,484.5C 418.833,484.5 437.167,484.5 455.5,484.5C 456.163,420.491 455.496,356.825 453.5,293.5C 453.842,292.662 454.508,292.328 455.5,292.5C 456.499,356.665 456.832,420.998 456.5,485.5C 437.5,485.5 418.5,485.5 399.5,485.5C 399.168,420.331 399.501,355.331 400.5,290.5 Z"/>
  </g>
  <g transform="matrix(0.054905004799366004, 0, 0, 0.048558004200458534, -0.4725480079650808, -0.4757210314273834)">
    <path style="opacity:1" fill="#1aa0a7" d="M 989.5,399.5 C 990.833,399.5 992.167,399.5 993.5,399.5C 995.485,413.833 992.985,427.166 986,439.5C 973.927,451.06 959.76,454.56 943.5,450C 936.647,445.798 933.314,439.632 933.5,431.5C 933.698,421.801 938.365,415.301 947.5,412C 955.389,409.574 963.389,407.574 971.5,406C 977.638,404.092 983.638,401.926 989.5,399.5 Z"/>
  </g>
  <g transform="matrix(0.054905004799366004, 0, 0, 0.048558004200458534, -0.4725480079650808, -0.4757210314273834)">
    <path style="opacity:1" fill="#173d3f" d="M 550.5,426.5 C 548.034,422.982 547.034,418.982 547.5,414.5C 527.5,414.5 507.5,414.5 487.5,414.5C 487.5,415.5 487.5,416.5 487.5,417.5C 486.566,416.432 486.232,415.099 486.5,413.5C 507.167,413.5 527.833,413.5 548.5,413.5C 548.425,417.981 549.092,422.314 550.5,426.5 Z"/>
  </g>
  <g transform="matrix(0.054905004799366004, 0, 0, 0.048558004200458534, -0.4725480079650808, -0.4757210314273834)">
    <path style="opacity:1" fill="#16666b" d="M 309.5,334.5 C 310.167,384.5 310.833,434.5 311.5,484.5C 328.5,484.5 345.5,484.5 362.5,484.5C 345.008,485.497 327.341,485.83 309.5,485.5C 309.832,435.664 309.499,385.997 308.5,336.5C 308.328,335.508 308.662,334.842 309.5,334.5 Z"/>
  </g>
  <g transform="matrix(0.054905004799366004, 0, 0, 0.048558004200458534, -0.4725480079650808, -0.4757210314273834)">
    <path style="opacity:1" fill="#156d72" d="M 611.5,419.5 C 612.647,423.646 612.814,427.98 612,432.5C 611.617,433.056 611.117,433.389 610.5,433.5C 611.314,428.881 611.647,424.214 611.5,419.5 Z"/>
  </g>
  <g transform="matrix(0.054905004799366004, 0, 0, 0.048558004200458534, -0.4725480079650808, -0.4757210314273834)">
    <path style="opacity:1" fill="#88ced1" d="M 892.5,420.5 C 891.986,426.822 891.653,433.155 891.5,439.5C 890.146,433.101 890.479,426.768 892.5,420.5 Z"/>
  </g>
  <g transform="matrix(0.054905004799366004, 0, 0, 0.048558004200458534, -0.4725480079650808, -0.4757210314273834)">
    <path style="opacity:1" fill="#183336" d="M 309.5,334.5 C 309.56,333.957 309.893,333.624 310.5,333.5C 311.5,383.829 311.833,434.162 311.5,484.5C 310.833,434.5 310.167,384.5 309.5,334.5 Z"/>
  </g>
  <g transform="matrix(0.054905004799366004, 0, 0, 0.048558004200458534, -0.4725480079650808, -0.4757210314273834)">
    <path style="opacity:1" fill="#64bdc2" d="M 798.5,447.5 C 792.681,448.653 786.681,448.819 780.5,448C 777.032,447.77 774.366,446.27 772.5,443.5C 773.93,443.579 775.264,443.246 776.5,442.5C 778.55,443.077 779.55,444.41 779.5,446.5C 785.804,447.26 792.137,447.593 798.5,447.5 Z"/>
  </g>
  <g transform="matrix(0.054905004799366004, 0, 0, 0.048558004200458534, -0.4725480079650808, -0.4757210314273834)">
    <path style="opacity:1" fill="#185256" d="M 542.5,482.5 C 545.228,482.171 547.562,482.837 549.5,484.5C 546.848,484.59 544.515,483.924 542.5,482.5 Z"/>
  </g>
  <g transform="matrix(0.054905004799366004, 0, 0, 0.048558004200458534, -0.4725480079650808, -0.4757210314273834)">
    <path style="opacity:1" fill="#166266" d="M 130.5,284.5 C 130.5,351.167 130.5,417.833 130.5,484.5C 147.5,484.5 164.5,484.5 181.5,484.5C 164.341,485.497 147.008,485.83 129.5,485.5C 129.168,418.331 129.501,351.331 130.5,284.5 Z"/>
  </g>
  <g transform="matrix(0.054905004799366004, 0, 0, 0.048558004200458534, -0.4725480079650808, -0.4757210314273834)">
    <path style="opacity:1" fill="#19484b" d="M 552.5,484.5 C 558.739,484.276 564.739,484.943 570.5,486.5C 564.288,486.477 558.288,485.81 552.5,484.5 Z"/>
  </g>
  <g transform="matrix(0.054905004799366004, 0, 0, 0.048558004200458534, -0.4725480079650808, -0.4757210314273834)">
    <path style="opacity:1" fill="#b8e2e4" d="M 1079.5,547.5 C 1091.51,548.747 1103.51,548.747 1115.5,547.5C 1114.74,548.268 1113.74,548.768 1112.5,549C 1108.17,549.167 1103.83,549.333 1099.5,549.5C 1092.6,549.654 1085.94,548.987 1079.5,547.5 Z"/>
  </g>
</svg>