<svg width="75" height="32" viewBox="0 0 157 48" fill="none" xmlns="http://www.w3.org/2000/svg">
<path d="M67.2286 0.0818398V16.498C67.994 16.498 68.7404 16.4091 69.4556 16.2436C71.2583 15.8233 72.8662 14.9043 74.1334 13.6394C75.8997 11.8731 76.9916 9.43214 76.9916 6.73718V0.0818398H67.2286ZM70.9127 19.5074C68.6683 21.2955 67.2286 24.0532 67.2286 27.1466V48H76.9916V17.3858C74.6947 17.3858 72.5807 18.1802 70.9127 19.5074ZM109.936 22.3083C109.649 22.1882 109.351 22.0681 109.046 21.9555C106.927 21.1825 104.697 20.6643 102.54 20.1648C101.275 19.8722 99.9693 19.5697 98.7141 19.2192C96.7388 18.6699 94.8191 18.1059 93.0262 17.2728C91.2092 16.4282 90.3979 14.8874 90.6167 12.696C90.7604 11.3376 91.5335 10.2915 92.5151 9.54956C93.1774 9.04829 93.9357 8.68801 94.6581 8.46517C95.8821 8.088 97.2285 7.88917 98.546 7.88917C99.6717 7.88917 101.429 8.03996 103.085 8.80099C103.958 9.20396 104.803 9.77774 105.511 10.5868C106.214 11.3883 106.793 12.4153 107.222 13.6202C107.237 13.6656 107.265 13.7813 107.306 13.9276C107.76 15.6289 107.897 16.1426 108.66 16.1426L108.828 16.1377L108.905 16.1137C109.017 16.0924 109.132 16.0728 109.245 16.0514C110.472 15.8308 111.686 15.6049 112.977 15.3674L115.754 14.8585L116.621 14.6473L116.453 13.8146C116.426 13.6776 116.4 13.5455 116.364 13.4116C116.325 13.1906 116.164 12.2979 115.805 11.1192C115.238 9.27602 114.194 6.74429 112.392 5.02342C112.387 5.01852 112.385 5.0163 112.38 5.01141C111.492 4.16676 110.44 3.40084 109.245 2.72921C108.998 2.58999 108.744 2.45522 108.485 2.32356L108.391 2.26841L108.336 2.24884C106.759 1.46424 105.036 0.876229 103.202 0.506612C102.525 0.377179 101.899 0.281104 101.289 0.211273C100.521 0.124984 99.7149 0.0818398 98.8916 0.0818398C96.8469 0.0818398 94.7684 0.338483 92.7838 0.845095C88.0054 2.06915 83.7791 4.74765 81.9238 8.80099C81.451 9.828 81.1339 10.944 80.9974 12.1489C80.7861 14.0041 81.0503 15.8259 81.7388 17.5228C82.8188 20.2058 84.9573 22.5867 87.9596 24.3218C88.7371 24.7706 89.5675 25.1713 90.4726 25.5316C91.4134 25.8434 92.4595 26.1579 93.7605 26.5199C94.3654 26.6907 94.9676 26.8562 95.5726 27.0243C96.439 27.2618 97.3028 27.4994 98.1621 27.7516C99.0116 27.9984 99.8781 28.2003 100.716 28.3969C102.041 28.7065 103.293 28.997 104.481 29.4578C104.829 29.5921 105.153 29.7384 105.453 29.8972C107.464 30.9482 108.37 32.4988 108.144 34.5216C107.928 36.4756 106.642 37.846 104.902 38.6929C103.423 39.4107 101.611 39.7537 99.8492 39.7537C99.1175 39.7537 98.4116 39.6936 97.7516 39.5762C96.1388 39.2858 94.7875 38.8681 93.6524 38.3664C88.814 36.2305 87.9116 32.614 87.5709 31.248C87.4677 30.8428 87.4125 30.6169 87.2564 30.4105L86.9135 29.9568L85.8406 30.1921C84.0886 30.5764 82.4251 30.9384 80.8003 31.3009L79.0821 31.6728L79.2213 32.5108C79.49 34.128 79.8836 35.6452 80.3951 37.0298C80.5005 37.3033 80.6108 37.572 80.7309 37.8362C82.495 41.7267 85.8909 44.6307 90.607 46.26C90.6643 46.284 90.7173 46.3036 90.7604 46.3156C90.8396 46.3441 90.9188 46.3681 90.9357 46.3681C91.622 46.5651 92.306 46.7377 92.9901 46.884C94.034 47.1144 95.0735 47.2875 96.0956 47.4C96.9527 47.4961 97.8548 47.5441 98.7764 47.5441C107.309 47.5441 116.884 43.6273 117.744 35.0256C117.772 34.7547 117.789 34.4812 117.799 34.2098C117.808 34.1258 117.811 34.0488 117.811 33.9625V33.8763C117.89 28.4352 115.241 24.5424 109.936 22.3083ZM62.2701 4.12806C62.2701 4.10182 62.2701 4.07558 62.2607 4.05601C62.2078 3.77312 62.126 3.48757 62.0303 3.22337C62.0108 3.20424 62.0108 3.178 61.9943 3.15131C61.8956 2.88488 61.7639 2.63536 61.6127 2.39784C61.5936 2.36181 61.5767 2.33557 61.5598 2.30889C61.3987 2.06915 61.2213 1.83875 61.0367 1.63459C61.0078 1.60835 60.9909 1.58166 60.9646 1.56253C60.7511 1.34192 60.5109 1.13777 60.2543 0.960295C60.2445 0.95051 60.2445 0.95051 60.2374 0.94117H60.2276C59.7045 0.578669 59.1094 0.319359 58.4614 0.187257C58.4614 0.177917 58.4543 0.177915 58.4543 0.177915C58.1687 0.124986 57.8685 0.0889593 57.566 0.0889593C57.5469 0.0889593 57.5206 0.0818398 57.494 0.0818398H57.4677C57.1844 0.0818398 56.9086 0.108083 56.6351 0.161012C56.6084 0.161012 56.5799 0.161014 56.563 0.170799C56.2704 0.223284 56.0039 0.302455 55.7375 0.401197C55.7108 0.417655 55.6846 0.417655 55.6583 0.437226C55.5623 0.470585 55.4684 0.511504 55.3772 0.556872C55.214 0.631596 55.0556 0.722779 54.9044 0.818409C54.8782 0.83531 54.8421 0.85221 54.8061 0.871336C54.5757 1.02968 54.3524 1.20003 54.1412 1.39441C54.1149 1.42109 54.086 1.43799 54.0598 1.46424C53.8485 1.67773 53.6443 1.91792 53.4669 2.16744C53.4669 2.17456 53.4575 2.18435 53.4477 2.19369L53.4215 2.22749V2.23683L50.4984 6.48009L40.7375 20.6425V20.6448L36.0548 27.4371V4.96115C36.0548 4.67782 36.0188 4.40205 35.9756 4.12806C35.9756 4.10182 35.9663 4.07558 35.9663 4.05601C35.9134 3.77312 35.8342 3.48757 35.7261 3.22337C35.719 3.20424 35.7092 3.178 35.6999 3.15131C35.594 2.88488 35.4695 2.63536 35.3183 2.39784C35.3014 2.36181 35.2822 2.33557 35.2653 2.30889C35.107 2.06915 34.9295 1.83875 34.7325 1.63459C34.7156 1.60835 34.6893 1.58166 34.6702 1.56253C34.4491 1.34192 34.2192 1.13777 33.9621 0.960295C33.9528 0.95051 33.9528 0.95051 33.943 0.94117H33.9332C33.4101 0.578669 32.8172 0.319359 32.1692 0.187257C32.1692 0.177917 32.1598 0.177915 32.1598 0.177915C31.8672 0.124986 31.574 0.0889593 31.2716 0.0889593C31.2453 0.0889593 31.2284 0.0818398 31.2022 0.0818398H31.176C30.89 0.0818398 30.6164 0.108083 30.3406 0.161012C30.314 0.161012 30.2877 0.161014 30.2615 0.170799C29.9759 0.223284 29.7019 0.302455 29.436 0.401197C29.4093 0.417655 29.383 0.417655 29.3568 0.437226C29.0975 0.532855 28.8502 0.667626 28.61 0.818409C28.574 0.83531 28.5477 0.85221 28.5117 0.871336C28.2719 1.02968 28.0509 1.20003 27.8467 1.39441C27.8205 1.42109 27.7942 1.43799 27.7676 1.46424C27.5447 1.67773 27.3504 1.91792 27.1724 2.16744C27.1631 2.17456 27.1631 2.18435 27.156 2.19369L27.1293 2.22749V2.23683L24.2039 6.48276L14.4431 20.6474L9.76306 27.4393V27.4344L0.86066 40.3528C0.299785 41.1663 0 42.1306 0 43.1185C0 43.404 0.0262404 43.678 0.0716086 43.9538C0.0813939 43.98 0.0813953 44.0067 0.0813953 44.0258C0.134325 44.3092 0.222836 44.5921 0.31891 44.8585C0.328695 44.8754 0.338037 44.9043 0.347822 44.9305C0.453236 45.197 0.585338 45.4443 0.729449 45.684C0.746351 45.72 0.762806 45.7467 0.789493 45.773C0.94072 46.0131 1.11819 46.2435 1.31479 46.4473C1.34147 46.4739 1.35837 46.5002 1.38462 46.5193C1.59811 46.7404 1.8383 46.9441 2.0856 47.1215C2.09494 47.1313 2.10473 47.1313 2.10473 47.1385C2.11184 47.1385 2.11184 47.1384 2.12118 47.1482C2.30844 47.2728 2.50281 47.3786 2.69718 47.4867C2.74299 47.5032 2.78614 47.5201 2.83195 47.5468C3.02632 47.6353 3.23003 47.7171 3.43419 47.7865C3.46043 47.7865 3.47956 47.7963 3.49646 47.7963C3.68372 47.8488 3.86875 47.8946 4.06535 47.9284C4.12762 47.9377 4.18055 47.9475 4.24282 47.9546C4.43719 47.9835 4.632 47.9907 4.82859 48H4.9438C5.10214 47.9907 5.26315 47.9835 5.41438 47.964C5.46686 47.964 5.51979 47.9546 5.57272 47.9475C5.70705 47.9284 5.83159 47.9017 5.96369 47.8755C6.01662 47.8683 6.06955 47.8488 6.1247 47.8323C6.24702 47.8056 6.37156 47.7603 6.48676 47.7242C6.53969 47.7073 6.59484 47.6811 6.65489 47.6642C6.77276 47.6184 6.88796 47.5659 7.00316 47.513C7.0463 47.4867 7.09879 47.46 7.15172 47.4316C7.30294 47.3617 7.44705 47.2728 7.57916 47.1843C7.6223 47.1576 7.65833 47.1215 7.70369 47.0953C7.80955 47.0161 7.92475 46.9347 8.03239 46.8458C8.08532 46.8026 8.12847 46.7497 8.1814 46.7043C8.27035 46.6252 8.35175 46.5362 8.43092 46.457C8.47407 46.4019 8.51988 46.3587 8.56302 46.3058C8.67111 46.1906 8.75962 46.0754 8.84858 45.9504C8.86548 45.9313 8.8846 45.9144 8.89172 45.8882L8.92775 45.8521V45.845L14.4431 37.8411L24.2039 23.676L26.2895 20.6496L26.294 20.6425V43.1185C26.294 43.404 26.3207 43.678 26.366 43.9538C26.3732 43.98 26.3732 44.0067 26.3829 44.0258C26.4359 44.3092 26.515 44.5921 26.6133 44.8585C26.6231 44.8754 26.6302 44.9043 26.6396 44.9305C26.7477 45.197 26.8798 45.4443 27.031 45.684C27.047 45.7187 27.0657 45.7445 27.0821 45.7703C27.2369 46.0114 27.4046 46.2449 27.607 46.4477C27.6337 46.4739 27.6528 46.5002 27.679 46.5193C27.8925 46.7404 28.1301 46.9441 28.3894 47.1215C28.3894 47.1313 28.3965 47.1313 28.4063 47.1385C28.4063 47.1385 28.4156 47.1384 28.4156 47.1482C28.6006 47.2728 28.7972 47.3786 29.0014 47.4867C29.0348 47.5032 29.0806 47.5201 29.1237 47.5468C29.3208 47.6353 29.5245 47.7171 29.738 47.7865C29.7549 47.7865 29.7718 47.7963 29.7909 47.7963C29.9759 47.8488 30.1632 47.8946 30.3575 47.9284L30.5444 47.9546C30.7316 47.9835 30.926 47.9907 31.1204 48H31.2356C31.3966 47.9907 31.5571 47.9835 31.7159 47.964C31.7684 47.964 31.8142 47.9546 31.8672 47.9475C31.9988 47.9284 32.1336 47.9017 32.2581 47.8755C32.3111 47.8683 32.364 47.8488 32.4165 47.8323C32.5415 47.8056 32.666 47.7603 32.7812 47.7242C32.8341 47.7073 32.8964 47.6811 32.9493 47.6642C33.0645 47.6184 33.1797 47.5659 33.2949 47.513C33.3478 47.4867 33.403 47.46 33.4461 47.4316C33.5974 47.3617 33.7388 47.2728 33.8736 47.1843C33.9167 47.1576 33.9528 47.1215 33.9959 47.0953C34.1111 47.0161 34.2192 46.9347 34.3246 46.8458C34.3775 46.8026 34.4327 46.7497 34.4758 46.7043C34.5643 46.6252 34.644 46.5362 34.7254 46.457C34.7783 46.4019 34.8214 46.3587 34.8668 46.3058C34.9629 46.1906 35.0518 46.0754 35.1403 45.9504C35.1599 45.9313 35.1764 45.9144 35.1959 45.8882L35.2222 45.8521V45.845L36.0335 44.6668L40.7375 37.8411L50.4984 23.676L52.5884 20.6425V47.5561C52.5884 47.7073 52.596 47.8586 52.6151 48H62.323C62.3399 47.8586 62.3492 47.7073 62.3492 47.5561V4.96115C62.3492 4.67782 62.323 4.40205 62.2701 4.12806ZM140.378 3.89055C139.836 3.58587 139.185 3.48001 138.549 3.56185C138.365 3.58098 138.182 3.61923 138.004 3.67216C136.864 4.00842 136.209 4.94425 136.113 6.31686C136.106 6.42272 136.104 6.52591 136.104 6.62643C136.121 8.10757 137.006 9.20396 138.35 9.47306C138.532 9.50909 138.724 9.53044 138.924 9.53533C139.24 9.47306 139.565 9.43926 139.869 9.34318C141.004 8.98335 141.672 8.04263 141.72 6.67224C141.768 5.25604 141.189 4.34912 140.378 3.89055ZM140.378 3.89055C139.836 3.58587 139.185 3.48001 138.549 3.56185C138.365 3.58098 138.182 3.61923 138.004 3.67216C136.864 4.00842 136.209 4.94425 136.113 6.31686C136.106 6.42272 136.104 6.52591 136.104 6.62643C136.121 8.10757 137.006 9.20396 138.35 9.47306C138.532 9.50909 138.724 9.53044 138.924 9.53533C139.24 9.47306 139.565 9.43926 139.869 9.34318C141.004 8.98335 141.672 8.04263 141.72 6.67224C141.768 5.25604 141.189 4.34912 140.378 3.89055ZM128.162 3.49958C128.037 3.52805 127.915 3.56674 127.8 3.61211C126.811 3.9844 126.211 4.88197 126.105 6.1514C125.976 7.73528 126.869 8.962 128.148 9.29781C128.657 9.42991 129.228 9.4228 129.821 9.23999C131.006 8.87304 131.707 7.82913 131.716 6.41515C131.733 4.33711 130.144 3.03611 128.162 3.49958ZM128.148 9.29781C128.657 9.42991 129.228 9.4228 129.821 9.23999C131.006 8.87304 131.707 7.82913 131.716 6.41515C131.733 4.33711 130.144 3.03611 128.162 3.49958C128.037 3.52805 127.915 3.56674 127.8 3.61211C126.811 3.9844 126.211 4.88197 126.105 6.1514C125.976 7.73528 126.869 8.962 128.148 9.29781ZM140.378 3.89055C139.836 3.58587 139.185 3.48001 138.549 3.56185C138.365 3.58098 138.182 3.61923 138.004 3.67216C136.864 4.00842 136.209 4.94425 136.113 6.31686C136.106 6.42272 136.104 6.52591 136.104 6.62643C136.121 8.10757 137.006 9.20396 138.35 9.47306C138.532 9.50909 138.724 9.53044 138.924 9.53533C139.24 9.47306 139.565 9.43926 139.869 9.34318C141.004 8.98335 141.672 8.04263 141.72 6.67224C141.768 5.25604 141.189 4.34912 140.378 3.89055ZM152.882 2.08827C151.728 5.27517 150.573 8.46517 149.409 11.6498C148.972 12.8401 148.113 13.8889 146.983 14.4769C146.239 14.8656 145.488 14.9884 144.727 14.9257C144.233 14.8848 143.736 14.7674 143.234 14.5948C143.445 14.0041 143.652 13.4308 143.863 12.8401C144.41 13.0082 144.919 13.1786 145.483 13.0585C146.563 12.8308 147.187 12.12 147.561 11.1508C147.614 11.0138 147.547 10.8096 147.489 10.654C146.472 7.83847 145.447 5.02342 144.422 2.20837C144.374 2.0736 144.326 1.93438 144.266 1.76402H146.219C147.005 3.96038 147.794 6.17764 148.586 8.39534C148.617 8.39534 148.646 8.39312 148.677 8.39312C149.462 6.18965 150.249 3.98662 151.044 1.75958H152.971C152.94 1.877 152.921 1.98508 152.882 2.08827ZM141.751 11.1508V10.3013C141.674 10.3106 141.619 10.3013 141.597 10.3248C140.748 11.2655 139.171 11.6018 137.702 11.254C136.819 11.0427 135.977 10.5841 135.35 9.8618C135.139 9.61717 134.952 9.34096 134.796 9.03361C134.453 8.3522 134.268 7.57693 134.239 6.79456C134.191 5.66435 134.462 4.51948 135.031 3.617C135.129 3.45866 135.237 3.30966 135.352 3.16821C136.305 2.01622 138.163 1.38729 139.804 1.75958C140.217 1.85076 140.616 2.00643 140.98 2.23238C141.172 2.34758 141.355 2.48413 141.525 2.64025C141.566 2.67628 141.614 2.70475 141.736 2.79593V1.7618H143.585V11.1508H141.751ZM124.243 1.76402H126.074C126.086 1.93438 126.098 2.09539 126.112 2.31378C126.278 2.22749 126.415 2.15766 126.552 2.08338C126.874 1.91302 127.214 1.78093 127.567 1.68974C128.525 1.43533 129.559 1.46646 130.481 1.7618C130.932 1.90591 131.357 2.11229 131.733 2.37872C131.911 2.50593 132.077 2.64515 132.23 2.79593C133.036 3.59521 133.44 4.58886 133.56 5.7026C133.697 6.93155 133.519 8.10756 132.871 9.17994C132.561 9.69367 132.173 10.102 131.733 10.4187C131.222 10.7856 130.639 11.0236 130.027 11.1508C129.451 11.2709 128.848 11.2922 128.253 11.2273C128.244 11.2273 128.236 11.2251 128.227 11.2224C127.481 11.1388 126.799 10.8697 126.105 10.4618V13.9681H124.243V1.76402ZM121.097 0V16.4571L146.356 16.4184C151.747 16.4184 156.117 12.0484 156.117 6.65534V0H121.097ZM128.162 3.49958C128.037 3.52805 127.915 3.56674 127.8 3.61211C126.811 3.9844 126.211 4.88197 126.105 6.1514C125.976 7.73528 126.869 8.962 128.148 9.29781C128.657 9.42991 129.228 9.4228 129.821 9.23999C131.006 8.87304 131.707 7.82913 131.716 6.41515C131.733 4.33711 130.144 3.03611 128.162 3.49958ZM140.378 3.89055C139.836 3.58587 139.185 3.48001 138.549 3.56185C138.365 3.58098 138.182 3.61923 138.004 3.67216C136.864 4.00842 136.209 4.94425 136.113 6.31686C136.106 6.42272 136.104 6.52591 136.104 6.62643C136.121 8.10757 137.006 9.20396 138.35 9.47306C138.532 9.50909 138.724 9.53044 138.924 9.53533C139.24 9.47306 139.565 9.43926 139.869 9.34318C141.004 8.98335 141.672 8.04263 141.72 6.67224C141.768 5.25604 141.189 4.34912 140.378 3.89055ZM140.378 3.89055C139.836 3.58587 139.185 3.48001 138.549 3.56185C138.365 3.58098 138.182 3.61923 138.004 3.67216C136.864 4.00842 136.209 4.94425 136.113 6.31686C136.106 6.42272 136.104 6.52591 136.104 6.62643C136.121 8.10757 137.006 9.20396 138.35 9.47306C138.532 9.50909 138.724 9.53044 138.924 9.53533C139.24 9.47306 139.565 9.43926 139.869 9.34318C141.004 8.98335 141.672 8.04263 141.72 6.67224C141.768 5.25604 141.189 4.34912 140.378 3.89055ZM128.162 3.49958C128.037 3.52805 127.915 3.56674 127.8 3.61211C126.811 3.9844 126.211 4.88197 126.105 6.1514C125.976 7.73528 126.869 8.962 128.148 9.29781C128.657 9.42991 129.228 9.4228 129.821 9.23999C131.006 8.87304 131.707 7.82913 131.716 6.41515C131.733 4.33711 130.144 3.03611 128.162 3.49958ZM128.162 3.49958C128.037 3.52805 127.915 3.56674 127.8 3.61211C126.811 3.9844 126.211 4.88197 126.105 6.1514C125.976 7.73528 126.869 8.962 128.148 9.29781C128.657 9.42991 129.228 9.4228 129.821 9.23999C131.006 8.87304 131.707 7.82913 131.716 6.41515C131.733 4.33711 130.144 3.03611 128.162 3.49958Z" fill="#6322D0"/>
</svg>
